# xmcd
#
# Track frame offsets:
#	150
#	16035
#	32042
#	49310
#	66415
#	81272
#	100162
#	115177
#	128545
#	145815
#
# Disc length: 2339 seconds
#
# Revision: 1
# Processed by: cddbd v1.5.2PL0 Copyright (c) Steve Scherf et al.
# Submitted via: audiograbber 1.83.01
#
DISCID=8009210a
DTITLE=Stagger Lee - Stagger Lee
DYEAR=1997
DGENRE=Country
TTITLE0=Stagger Lee - Gravel Road
TTITLE1=Lay a Little Lovin´on Me
TTITLE2=Tuesday
TTITLE3=Eyes Of Love
TTITLE4=Thanks But No Thanks
TTITLE5=Remember Me
TTITLE6=Indiana Highway
TTITLE7=Hole In  My Heart
TTITLE8=Albuquerque
TTITLE9=Blanket On The Beach
EXTD=
EXTT0=
EXTT1=
EXTT2=
EXTT3=
EXTT4=
EXTT5=
EXTT6=
EXTT7=
EXTT8=
EXTT9=
PLAYORDER=
